<svg xmlns="http://www.w3.org/2000/svg" width="1024" height="1024" viewBox="0 0 1024 1024">
  <defs>
    <filter id="shadow" x="-40%" y="-40%" width="180%" height="180%">
      <feDropShadow dx="0" dy="34" stdDeviation="28" flood-color="#102019" flood-opacity=".38"/>
    </filter>
    <pattern id="grain" width="18" height="18" patternUnits="userSpaceOnUse">
      <circle cx="2" cy="2" r="1" fill="#fff" opacity=".05"/>
    </pattern>
  </defs>
  <rect x="54" y="54" width="916" height="916" rx="220" fill="#20352b"/>
  <rect x="54" y="54" width="916" height="916" rx="220" fill="url(#grain)"/>
  <circle cx="778" cy="250" r="116" fill="none" stroke="#f4edde" stroke-width="3" opacity=".11"/>
  <circle cx="778" cy="250" r="158" fill="none" stroke="#f4edde" stroke-width="3" opacity=".055"/>
  <g filter="url(#shadow)" transform="rotate(-4 500 520)">
    <rect x="282" y="178" width="460" height="668" rx="58" fill="#f4edde"/>
    <path d="M282 740h460v48c0 32-26 58-58 58H340c-32 0-58-26-58-58z" fill="#e8dfcf"/>
    <rect x="370" y="286" width="272" height="272" rx="70" fill="#d8583c"/>
    <text x="506" y="479" text-anchor="middle" fill="#fff8ec" font-family="Songti SC, STSong, serif" font-size="156" font-weight="700">账</text>
    <rect x="374" y="642" width="264" height="18" rx="9" fill="#bfb5a5"/>
    <rect x="374" y="694" width="190" height="18" rx="9" fill="#c9bfaf"/>
  </g>
  <path d="M221 323v-72c0-24 19-43 43-43h72M803 701v72c0 24-19 43-43 43h-72" fill="none" stroke="#efb091" stroke-width="18" stroke-linecap="round" opacity=".9"/>
</svg>
